<?xml version="1.0" encoding="UTF-8" standalone="no"?><svg xmlns="http://www.w3.org/2000/svg" xmlns:xlink="http://www.w3.org/1999/xlink" contentStyleType="text/css" height="203px" preserveAspectRatio="none" style="width:435px;height:203px;background:#FFFFFF;" version="1.1" viewBox="0 0 435 203" width="435px" zoomAndPan="magnify"><defs/><g><!--MD5=[3e17c1648630f39dd5ef5b79ce7b4687]
class CasaInteligente--><g id="elem_CasaInteligente"><rect codeLine="5" fill="#F1F1F1" height="96.8906" id="CasaInteligente" rx="2.5" ry="2.5" style="stroke:#181818;stroke-width:0.5;" width="421" x="7" y="7"/><ellipse cx="159.75" cy="23" fill="#ADD1B2" rx="11" ry="11" style="stroke:#181818;stroke-width:1.0;"/><path d="M162.7188,28.6406 Q162.1406,28.9375 161.5,29.0781 Q160.8594,29.2344 160.1563,29.2344 Q157.6563,29.2344 156.3281,27.5938 Q155.0156,25.9375 155.0156,22.8125 Q155.0156,19.6875 156.3281,18.0313 Q157.6563,16.375 160.1563,16.375 Q160.8594,16.375 161.5,16.5313 Q162.1563,16.6875 162.7188,16.9844 L162.7188,19.7031 Q162.0938,19.125 161.5,18.8594 Q160.9063,18.5781 160.2813,18.5781 Q158.9375,18.5781 158.25,19.6563 Q157.5625,20.7188 157.5625,22.8125 Q157.5625,24.9063 158.25,25.9844 Q158.9375,27.0469 160.2813,27.0469 Q160.9063,27.0469 161.5,26.7813 Q162.0938,26.5 162.7188,25.9219 L162.7188,28.6406 Z " fill="#000000"/><text fill="#000000" font-family="sans-serif" font-size="14" lengthAdjust="spacing" textLength="107" x="180.25" y="27.8467">CasaInteligente</text><line style="stroke:#181818;stroke-width:0.5;" x1="8" x2="427" y1="39" y2="39"/><rect fill="none" height="6" style="stroke:#C82930;stroke-width:1.0;" width="6" x="15" y="47"/><text fill="#000000" font-family="sans-serif" font-size="14" lengthAdjust="spacing" textLength="245" x="27" y="55.9951">devices : Collection&lt;SmartDevice&gt;</text><rect fill="none" height="6" style="stroke:#C82930;stroke-width:1.0;" width="6" x="15" y="63.2969"/><text fill="#000000" font-family="sans-serif" font-size="14" lengthAdjust="spacing" textLength="395" x="27" y="72.292">divisionDevices : Map&lt;String,Collection&lt;SmartDevice&gt;&gt;</text><line style="stroke:#181818;stroke-width:0.5;" x1="8" x2="427" y1="79.5938" y2="79.5938"/><ellipse cx="18" cy="90.5938" fill="#84BE84" rx="3" ry="3" style="stroke:#038048;stroke-width:1.0;"/><text fill="#000000" font-family="sans-serif" font-size="14" lengthAdjust="spacing" textLength="296" x="27" y="96.5889">CasaInteligente(Collection&lt;SmartDevice&gt;)</text></g><!--MD5=[9434056dbb9e240bb1ba79db389e87fb]
class SmartDevice--><g id="elem_SmartDevice"><rect fill="#F1F1F1" height="32" id="SmartDevice" rx="2.5" ry="2.5" style="stroke:#181818;stroke-width:0.5;" width="119" x="158" y="164"/><ellipse cx="173" cy="180" fill="#ADD1B2" rx="11" ry="11" style="stroke:#181818;stroke-width:1.0;"/><path d="M175.9688,185.6406 Q175.3906,185.9375 174.75,186.0781 Q174.1094,186.2344 173.4063,186.2344 Q170.9063,186.2344 169.5781,184.5938 Q168.2656,182.9375 168.2656,179.8125 Q168.2656,176.6875 169.5781,175.0313 Q170.9063,173.375 173.4063,173.375 Q174.1094,173.375 174.75,173.5313 Q175.4063,173.6875 175.9688,173.9844 L175.9688,176.7031 Q175.3438,176.125 174.75,175.8594 Q174.1563,175.5781 173.5313,175.5781 Q172.1875,175.5781 171.5,176.6563 Q170.8125,177.7188 170.8125,179.8125 Q170.8125,181.9063 171.5,182.9844 Q172.1875,184.0469 173.5313,184.0469 Q174.1563,184.0469 174.75,183.7813 Q175.3438,183.5 175.9688,182.9219 L175.9688,185.6406 Z " fill="#000000"/><text fill="#000000" font-family="sans-serif" font-size="14" lengthAdjust="spacing" textLength="87" x="187" y="184.8467">SmartDevice</text></g><!--MD5=[c4432d9dd1d32467b0e8c1206f8bc1a4]
reverse link CasaInteligente to SmartDevice--><g id="link_CasaInteligente_SmartDevice"><path codeLine="3" d="M217.5,117.34 C217.5,134.64 217.5,151.98 217.5,163.84 " fill="none" id="CasaInteligente-backto-SmartDevice" style="stroke:#181818;stroke-width:1.0;"/><polygon fill="#181818" points="217.5,104.21,213.5,110.21,217.5,116.21,221.5,110.21,217.5,104.21" style="stroke:#181818;stroke-width:1.0;"/></g><!--MD5=[cfdc30a8af8910314279aaa25d9800a8]
@startuml
hide empty members

CasaInteligente *- - SmartDevice

class CasaInteligente {
  + CasaInteligente(Collection<SmartDevice>)
  - devices : Collection<SmartDevice>
  - divisionDevices : Map<String,Collection<SmartDevice>>
}
@enduml

PlantUML version 1.2022.4(Sat Apr 09 13:29:17 UTC 2022)
(GPL source distribution)
Java Runtime: OpenJDK Runtime Environment
JVM: OpenJDK 64-Bit Server VM
Default Encoding: UTF-8
Language: en
Country: US
--></g></svg>